<?xml version="1.0" encoding="utf-8"?>
<!-- Generator: Adobe Illustrator 22.0.1, SVG Export Plug-In . SVG Version: 6.00 Build 0)  -->
<svg version="1.1" id="Слой_1" xmlns="http://www.w3.org/2000/svg" xmlns:xlink="http://www.w3.org/1999/xlink" x="0px" y="0px"
	 viewBox="0 0 136.3 95.4" style="enable-background:new 0 0 136.3 95.4;" xml:space="preserve">
<style type="text/css">
	.st0{fill:#9FC6FF;}
</style>
<g>
	<path class="st0" d="M34.5,70.3c-0.6,0-1,0.4-1,1s0.4,1,1,1H88h18.9h0.9c0.6,0,1-0.4,1-1s-0.4-1-1-1h-0.9H88H34.5z"/>
	<path class="st0" d="M74.9,73.6h-7.5c-0.6,0-1,0.4-1,1s0.4,1,1,1h7.5c0.6,0,1-0.4,1-1S75.5,73.6,74.9,73.6z"/>
	<path class="st0" d="M117.3,29.9h-4.5c0-5.1-4.2-9.3-9.3-9.3H38.8c-5.1,0-9.3,4.2-9.3,9.3V39h-9.6c-1.3,0-2.4,1.1-2.4,2.4v10.5
		c0,1.3,1.1,2.4,2.4,2.4h9.6v17c0,5.1,4.2,9.3,9.3,9.3h22.3L59.6,87h-5.3c-0.6,0-1,0.4-1,1v3.1c0,0.6,0.4,1,1,1H88c0.6,0,1-0.4,1-1
		V88c0-0.6-0.4-1-1-1h-5.3l-1.5-6.4h22.3c5.1,0,9.3-4.2,9.3-9.3V57h4.5c2,0,3.7-1.7,3.7-3.7V33.6C121,31.6,119.4,29.9,117.3,29.9z
		 M117.3,31.9c1,0,1.7,0.7,1.7,1.7v19.7c0,0.1,0,0.2,0,0.3l-5.9-5.5c-0.7-0.7-1.9-0.9-2.7-0.4l-6,2.9c-0.3,0.1-0.6,0.1-0.8,0
		L94,44.5c-0.9-0.6-2.2-0.6-3.1,0l-15,9.4c-0.1-0.2-0.1-0.4-0.1-0.6V33.6c0-1,0.7-1.7,1.7-1.7H117.3z M19.5,51.9V41.4
		c0-0.2,0.2-0.4,0.4-0.4h21.2c0.2,0,0.4,0.2,0.4,0.4v10.5c0,0.2-0.2,0.4-0.4,0.4H19.9C19.7,52.3,19.5,52.1,19.5,51.9z M87,90.1H55.3
		V89h5.1h21.5H87V90.1z M80.7,87h-19l1.5-6.4h15.9L80.7,87z M110.8,71.3c0,4-3.3,7.3-7.3,7.3H79.9H62.4H38.8c-4,0-7.3-3.3-7.3-7.3
		v-17h9.6c1.3,0,2.4-1.1,2.4-2.4V41.4c0-1.3-1.1-2.4-2.4-2.4h-9.6v-9.1c0-4,3.3-7.3,7.3-7.3h64.7c4,0,7.3,3.3,7.3,7.3H77.5
		c-2,0-3.7,1.7-3.7,3.7v19.7c0,2,1.7,3.7,3.7,3.7h33.3V71.3z M77.9,55L92,46.1c0.3-0.2,0.6-0.2,0.9,0l9.6,6.1
		c0.9,0.5,1.9,0.6,2.8,0.1l6.1-2.9c0.1-0.1,0.3,0,0.4,0.1l5.8,5.5c-0.1,0-0.1,0-0.2,0H77.9z"/>
	<path class="st0" d="M108.1,45.7c2.5,0,4.6-2.1,4.6-4.6c0-2.5-2.1-4.6-4.6-4.6c-2.5,0-4.6,2.1-4.6,4.6
		C103.5,43.6,105.6,45.7,108.1,45.7z M108.1,38.5c1.4,0,2.6,1.2,2.6,2.6s-1.2,2.6-2.6,2.6s-2.6-1.2-2.6-2.6S106.7,38.5,108.1,38.5z"
		/>
	<path class="st0" d="M38.7,43.8H22.3c-0.6,0-1,0.4-1,1s0.4,1,1,1h16.4c0.6,0,1-0.4,1-1S39.3,43.8,38.7,43.8z"/>
	<path class="st0" d="M30.7,47.5h-8.4c-0.6,0-1,0.4-1,1s0.4,1,1,1h8.4c0.6,0,1-0.4,1-1S31.3,47.5,30.7,47.5z"/>
	<path class="st0" d="M56.8,55.8l-2.9,7.8c-0.2,0.5,0.1,1.1,0.6,1.3c0.1,0,0.2,0.1,0.3,0.1c0.4,0,0.8-0.2,0.9-0.7l2.9-7.8
		c0.2-0.5-0.1-1.1-0.6-1.3C57.5,55,57,55.2,56.8,55.8z"/>
	<path class="st0" d="M66.9,34.1c0-0.6-0.4-1-1-1h-29c-0.6,0-1,0.4-1,1s0.4,1,1,1h29C66.5,35.1,66.9,34.7,66.9,34.1z"/>
	<path class="st0" d="M65.9,43.8H47c-0.6,0-1,0.4-1,1s0.4,1,1,1h18.9c0.6,0,1-0.4,1-1S66.5,43.8,65.9,43.8z"/>
	<path class="st0" d="M65.9,47.5H47c-0.6,0-1,0.4-1,1s0.4,1,1,1h18.9c0.6,0,1-0.4,1-1S66.5,47.5,65.9,47.5z"/>
	<path class="st0" d="M74.7,60.2c0,0.6,0.4,1,1,1h18.9c0.6,0,1-0.4,1-1s-0.4-1-1-1H75.7C75.2,59.2,74.7,59.6,74.7,60.2z"/>
	<path class="st0" d="M94.6,65c0.6,0,1-0.4,1-1s-0.4-1-1-1H75.7c-0.6,0-1,0.4-1,1s0.4,1,1,1H94.6z"/>
	<path class="st0" d="M37.3,31.1h1.2c0.3,0,0.4-0.2,0.4-0.4v-1.2c0-0.2-0.2-0.4-0.4-0.4h-1.2c-0.2,0-0.4,0.2-0.4,0.4v1.2
		C36.9,30.9,37.1,31.1,37.3,31.1z"/>
	<path class="st0" d="M41.4,31.1h1.2c0.2,0,0.4-0.2,0.4-0.4v-1.2c0-0.2-0.2-0.4-0.4-0.4h-1.2c-0.2,0-0.4,0.2-0.4,0.4v1.2
		C41,30.9,41.2,31.1,41.4,31.1z"/>
	<path class="st0" d="M45.4,31.1h1.2c0.2,0,0.4-0.2,0.4-0.4v-1.2c0-0.2-0.2-0.4-0.4-0.4h-1.2c-0.2,0-0.4,0.2-0.4,0.4v1.2
		C45,30.9,45.2,31.1,45.4,31.1z"/>
	<path class="st0" d="M61.1,64.7c0.2,0.2,0.5,0.3,0.7,0.3c0.3,0,0.5-0.1,0.7-0.3l4.1-4c0.2-0.2,0.3-0.4,0.3-0.7s-0.1-0.5-0.3-0.7
		l-4.1-4c-0.4-0.4-1-0.4-1.4,0c-0.4,0.4-0.4,1,0,1.4l3.4,3.3l-3.4,3.3C60.7,63.7,60.7,64.3,61.1,64.7z"/>
	<path class="st0" d="M51.4,55.3c-0.4-0.4-1-0.4-1.4,0l-4,4c-0.4,0.4-0.4,1,0,1.4l4,4c0.2,0.2,0.5,0.3,0.7,0.3s0.5-0.1,0.7-0.3
		c0.4-0.4,0.4-1,0-1.4L48.1,60l3.3-3.3C51.8,56.3,51.8,55.7,51.4,55.3z"/>
</g>
</svg>
