<?xml version="1.0" encoding="utf-8"?>
<!-- Generator: Adobe Illustrator 22.0.1, SVG Export Plug-In . SVG Version: 6.00 Build 0)  -->
<svg version="1.1" id="Слой_1" xmlns="http://www.w3.org/2000/svg" xmlns:xlink="http://www.w3.org/1999/xlink" x="0px" y="0px"
	 viewBox="0 0 136.3 105.9" style="enable-background:new 0 0 136.3 105.9;" xml:space="preserve">
<style type="text/css">
	.st0{fill:#9FC6FF;}
</style>
<g>
	<path class="st0" d="M102.8,73c0-0.6-0.4-1-1-1H28.5c-0.6,0-1,0.4-1,1s0.4,1,1,1h73.3C102.4,74,102.8,73.6,102.8,73z"/>
	<path class="st0" d="M61.4,75.3c-0.6,0-1,0.4-1,1s0.4,1,1,1h7.5c0.6,0,1-0.4,1-1s-0.4-1-1-1H61.4z"/>
	<path class="st0" d="M111.3,31.7H71.5c-2,0-3.7,1.7-3.7,3.7v19.7c0,2,1.7,3.7,3.7,3.7h33.3V73c0,4-3.3,7.3-7.3,7.3H73.9H56.4H32.8
		c-4,0-7.3-3.3-7.3-7.3V56h29.1c1.5,0,2.9-1.4,2.9-2.9v-9.5c0-1.6-1.3-2.9-2.9-2.9H25.5v-9c0-4,3.3-7.3,7.3-7.3h2.5v5.2
		c0,1.3,1.1,2.4,2.4,2.4h21.2c1.3,0,2.4-1.1,2.4-2.4v-5.3h36.1c4,0,7.3,3.3,7.3,7.3h2c0-5.1-4.2-9.3-9.3-9.3H61.3v-3.2
		c0-1.3-1.1-2.4-2.4-2.4H37.7c-1.3,0-2.4,1.1-2.4,2.4v3.3h-2.5c-5.1,0-9.3,4.2-9.3,9.3v9h-9.1c-1.6,0-2.9,1.3-2.9,2.9v9.5
		c0,1.6,1.3,2.9,2.9,2.9h9.1v17c0,5.1,4.2,9.3,9.3,9.3h22.3l-1.5,6.5h-5.3c-0.6,0-1,0.4-1,1v3.1c0,0.6,0.4,1,1,1H82c0.6,0,1-0.4,1-1
		v-3.1c0-0.6-0.4-1-1-1h-5.3l-1.5-6.5h22.3c5.1,0,9.3-4.2,9.3-9.3V58.8h4.5c2,0,3.7-1.7,3.7-3.7V35.4
		C115,33.4,113.3,31.7,111.3,31.7z M37.3,19.1c0-0.2,0.2-0.4,0.4-0.4h21.2c0.2,0,0.4,0.2,0.4,0.4v10.5c0,0.2-0.2,0.4-0.4,0.4H37.7
		c-0.2,0-0.4-0.2-0.4-0.4V19.1z M13.5,53.1v-9.5c0-0.6,0.5-0.9,0.9-0.9h40.2c0.6,0,0.9,0.5,0.9,0.9v9.5c0,0.4-0.5,0.9-0.9,0.9H14.4
		C13.8,54,13.5,53.5,13.5,53.1z M81,91.9H49.3v-1.1h5.1h21.5H81V91.9z M74.6,88.8h-19l1.5-6.5h15.9L74.6,88.8z M69.8,35.4
		c0-1,0.7-1.7,1.7-1.7h39.8c1,0,1.7,0.7,1.7,1.7v19.7c0,0.1,0,0.2,0,0.3l-6.6-6.1c-0.3-0.3-0.8-0.3-1.1-0.2l-7.2,3.6l-11-7
		c-0.3-0.2-0.7-0.2-1.1,0l-16.1,10c-0.1-0.2-0.1-0.4-0.1-0.6V35.4z M71.9,56.8l14.6-9.1l11,7c0.3,0.2,0.7,0.2,1,0.1l7.1-3.5l6,5.6
		c-0.1,0-0.1,0-0.2,0H71.9z"/>
	<path class="st0" d="M102.1,47.5c2.5,0,4.6-2.1,4.6-4.6c0-2.5-2.1-4.6-4.6-4.6c-2.5,0-4.6,2.1-4.6,4.6
		C97.5,45.4,99.6,47.5,102.1,47.5z M102.1,40.3c1.4,0,2.6,1.2,2.6,2.6s-1.2,2.6-2.6,2.6s-2.6-1.2-2.6-2.6S100.7,40.3,102.1,40.3z"/>
	<path class="st0" d="M52,45.5H16.3c-0.6,0-1,0.4-1,1s0.4,1,1,1H52c0.6,0,1-0.4,1-1S52.6,45.5,52,45.5z"/>
	<path class="st0" d="M24.7,49.3h-8.4c-0.6,0-1,0.4-1,1s0.4,1,1,1h8.4c0.6,0,1-0.4,1-1S25.3,49.3,24.7,49.3z"/>
	<path class="st0" d="M40.1,23.5h16.4c0.6,0,1-0.4,1-1s-0.4-1-1-1H40.1c-0.6,0-1,0.4-1,1S39.5,23.5,40.1,23.5z"/>
	<path class="st0" d="M40.1,27.3h16.4c0.6,0,1-0.4,1-1s-0.4-1-1-1H40.1c-0.6,0-1,0.4-1,1S39.5,27.3,40.1,27.3z"/>
</g>
</svg>
