<?xml version="1.0" encoding="utf-8"?>
<!-- Generator: Adobe Illustrator 22.0.1, SVG Export Plug-In . SVG Version: 6.00 Build 0)  -->
<svg version="1.1" id="Слой_1" xmlns="http://www.w3.org/2000/svg" xmlns:xlink="http://www.w3.org/1999/xlink" x="0px" y="0px"
	 viewBox="0 0 130.3 100.9" style="enable-background:new 0 0 130.3 100.9;" xml:space="preserve">
<style type="text/css">
	.st0{fill:#9FC6FF;}
</style>
<g>
	<path class="st0" d="M28.4,70c0,0.6,0.4,1,1,1h73.4c0.6,0,1-0.4,1-1s-0.4-1-1-1H29.4C28.8,69,28.4,69.4,28.4,70z"/>
	<path class="st0" d="M69.9,72.3h-7.6c-0.6,0-1,0.4-1,1s0.4,1,1,1h7.6c0.6,0,1-0.4,1-1S70.5,72.3,69.9,72.3z"/>
	<path class="st0" d="M112.3,28.7h-4.6c0-5.1-4.2-9.3-9.3-9.3H33.7c-5.1,0-9.3,4.2-9.3,9.3v9h-9.6c-1.3,0-2.4,1.1-2.4,2.4v10.5
		c0,1.3,1.1,2.4,2.4,2.4h9.7v17c0,5.1,4.2,9.3,9.3,9.3H56l-1.5,6.5h-5.2c-0.6,0-1,0.4-1,1v3.1c0,0.6,0.4,1,1,1H83c0.6,0,1-0.4,1-1
		v-3.1c0-0.6-0.4-1-1-1h-5.4l-1.5-6.5h22.4c5.1,0,9.3-4.2,9.3-9.3V55.8h4.5c1.9,0,3.6-1.6,3.7-3.7V32.4
		C116,30.4,114.3,28.7,112.3,28.7z M112.3,30.7c1,0,1.7,0.7,1.7,1.7l0,19.6c0,0.1,0,0.3-0.1,0.4l-6.5-6.2c-0.3-0.3-0.8-0.4-1.1-0.2
		L99,49.7l-11-7c-0.3-0.2-0.7-0.2-1.1,0l-16,10c-0.1-0.2-0.1-0.4-0.1-0.6V32.4c0-1,0.7-1.7,1.7-1.7H112.3z M14.4,50.6V40.1
		c0-0.2,0.2-0.4,0.4-0.4H36c0.2,0,0.4,0.2,0.4,0.4v10.5c0,0.2-0.2,0.4-0.4,0.4H14.8C14.6,51,14.4,50.8,14.4,50.6z M82,88.9H50.3
		v-1.1h5h21.5H82V88.9z M75.5,85.8h-19l1.5-6.5H74L75.5,85.8z M105.8,70c0,4-3.3,7.3-7.3,7.3H74.8H57.3H33.8c-4,0-7.3-3.3-7.3-7.3
		V53H36c1.3,0,2.4-1.1,2.4-2.4V40.1c0-1.3-1.1-2.4-2.4-2.4h-9.6v-9c0-4,3.3-7.3,7.3-7.3h64.7c4,0,7.3,3.3,7.3,7.3H72.5
		c-2,0-3.7,1.7-3.7,3.7v19.7c0,2,1.7,3.7,3.7,3.7h33.3V70z M72.9,53.8l14.5-9.1l11,7c0.3,0.2,0.7,0.2,1,0.1l7.2-3.5l5.9,5.6
		c0,0-0.1,0-0.1,0H72.9z"/>
	<path class="st0" d="M103,44.5c2.5,0,4.6-2.1,4.6-4.6c0-2.5-2.1-4.6-4.6-4.6s-4.6,2.1-4.6,4.6C98.4,42.4,100.5,44.5,103,44.5z
		 M103,37.3c1.4,0,2.6,1.2,2.6,2.6s-1.2,2.6-2.6,2.6s-2.6-1.2-2.6-2.6S101.6,37.3,103,37.3z"/>
	<path class="st0" d="M33.6,42.5H17.2c-0.6,0-1,0.4-1,1s0.4,1,1,1h16.4c0.6,0,1-0.4,1-1S34.2,42.5,33.6,42.5z"/>
	<path class="st0" d="M25.6,46.3h-8.4c-0.6,0-1,0.4-1,1s0.4,1,1,1h8.4c0.6,0,1-0.4,1-1S26.2,46.3,25.6,46.3z"/>
</g>
</svg>
