<svg xmlns="http://www.w3.org/2000/svg" xmlns:xlink="http://www.w3.org/1999/xlink" viewBox="0 0 254.51 255.5"><defs><style>.a{fill:none;}.b{clip-path:url(#a);}.c{fill:#961a37;}</style><clipPath id="a" transform="translate(0 0)"><rect class="a" width="254.51" height="255.5"/></clipPath></defs><title>list_3</title><g class="b"><path class="c" d="M0,128Q0,77.73,0,27.49C0,10.61,10.59.14,27.51.13,63.34.11,99.17.37,135,0c14.95-.15,28.11,10.78,27.8,27.81-.61,33.65-.09,67.32-.27,101,0,4.65,1.23,7.67,5.71,9.13a6.77,6.77,0,0,1,2.23,1.11c7.54,6.29,14.62,2,21.75-.92,3.15-1.3,1.38-3.26.46-4.84-6.13-10.5-11.94-21.18-16.43-32.5-3.75-9.44-7.39-18.94-7.21-29.36.25-14.29,6.68-25,19.38-31.39,12.9-6.51,25.62-5.28,37.13,3.41S241.21,63.88,239,77.85c-2.54,16-9.36,30.49-17.22,44.46-2.41,4.28-1.78,6,2.68,8,8.52,3.76,16.65,8.4,25.09,12.33,4.47,2.08,5.79,5.07,4.49,9.6-3,10.39-5.88,20.81-8.95,31.17-1.56,5.28-4,6.34-9,3.95-7.64-3.71-15.28-7.43-22.76-11.44a9.87,9.87,0,0,0-9-.38c-10.23,4-20.54,7.79-30.82,11.63-1.86.69-3.83,2-5.75,1.25-5.62-2.12-5.16,1.56-5.15,5,0,12.16.11,24.33,0,36.49-.16,14.67-11,25.48-25.73,25.52q-55.49.15-111,0c-14.94,0-25.8-11-25.83-26Q-.06,178.72,0,128m29.53-5.7q0,33,0,66c0,6.71,0,6.76,6.6,6.76,28,0,56,.12,83.94,0,15.34-.09,12.65,2.61,13-13.79.08-3.68-1.09-4.47-4.38-2.74-5.89,3.09-11.88,6-17.84,9-2.15,1.07-4.34,1.88-6.53.1s-2-4-1.34-6.36c1.83-6.39,4.31-12.69,5.28-19.21,1.86-12.57,8.06-21,20.4-24.62,3.27-1,4.48-3.16,4.46-6.76q-.23-37.22,0-74.44c0-4.42-1.37-5.68-5.72-5.66q-46,.24-91.93,0c-4.5,0-6.09,1.23-6,5.9.21,22,.09,44,.09,65.95M9.37,127.45q0,49.73,0,99.47c0,13.37,5.79,19.15,19.16,19.15q52.73,0,105.46,0c13.4,0,19.26-5.62,19.43-19,.16-12.66,0-25.32,0-38,0-7.69-.4-8.1-7.42-11-2.7-1.1-3.65-.54-3.6,2.33.07,5,0,10,0,15,0,7.3-1.43,8.84-8.72,8.85q-52.23.06-104.46,0c-7.62,0-9.06-1.5-9.06-9.09q0-72.48,0-144.95c0-7.68,1.43-9.12,8.94-9.12q52.23,0,104.46,0c7.36,0,8.82,1.44,8.82,8.69q0,35.74,0,71.48c0,4.38-1.63,9,6.56,7.84,4-.58,4.48-1.32,4.48-4.45,0-32.32.1-64.64-.09-97-.07-12.45-6.26-18.18-18.68-18.19q-53.23,0-106.46,0c-13,0-18.85,5.93-18.86,19q0,49.48,0,99M178.34,72a47.49,47.49,0,0,0,.83,7.95c3.72,16.08,11.24,30.51,19.31,44.69,5.63,9.9,5.82,9.89,11.4.12C218.32,110,226.29,95,229.61,78.1c2.15-11-.74-20.59-10-27.44-8.33-6.15-17.49-7.15-26.79-2.4-9.57,4.88-14.47,12.88-14.45,23.72m65.71,81.31c.76-2.41-.85-3.33-2.58-4.2-4.76-2.38-9.47-4.86-14.29-7.12-1.69-.79-4.37-3.29-5.19.23-.72,3.1-5.13,7,.39,9.89,4.85,2.56,9.93,4.72,14.67,7.47,3.86,2.23,5.35.88,6-2.92a32,32,0,0,1,1-3.35m-91.24-12.68c-2.57-.34-2.91,1.55-3,2.82-.3,2.81-3.71,6.1.51,8.4,5.54,3,11.29,5.63,16.91,8.51,2.17,1.11,2.93,0,3.67-1.77,2.86-6.86,2.58-7.7-4.07-11-4.75-2.37-9.52-4.73-14-6.94m58.43,1.29c-3.1,5.14-6.92,7.18-12.33,4-.57-.34-1.87.46-2.8.8-3.11,1.15-6.14,2.6-9.33,3.45-3.57,1-5.19,3.21-5.76,6.62-.19,1.12-1,2.38.08,3.25s2.22.06,3.27-.33c6.69-2.48,13.25-5.37,20.07-7.4,5.28-1.57,6.88-4.93,6.8-10.38m27.19,30.54c.09-2.08-1.47-2.55-2.76-3.2-4.86-2.47-9.7-5-14.63-7.3-1.54-.72-3.46-2.78-4.89.34-1.15,2.51-.82,4.35,1.9,5.65,5.21,2.5,10.32,5.21,15.53,7.71,3.12,1.49,5,.11,4.85-3.2m-91.74-11.71c-2.18-.12-2.08,1.56-2.59,2.67-.84,1.83-.34,3.16,1.49,4.07,5.34,2.65,10.63,5.4,16,8,1.45.7,3.23,2.42,4.46-.47,1-2.4,1.22-4.3-1.71-5.66-5.26-2.43-10.39-5.15-15.59-7.74-.74-.37-1.51-.65-2.05-.88m-23.33-5.67c4.19-1.5,9.06-3,13.76-5,2.21-.93,2-3.63,2.47-5.66.23-1-.62-1.53-1.56-1.1-5.68,2.6-11.47,5-16.62,8.65a2.91,2.91,0,0,0-.65,2.23c.07,1.15,1.1.94,2.6.9M134.11,163c-.15-1.7-1.35-1.31-2.49-.92-4.24,1.41-8.45,2.92-12.71,4.24-2.33.72-2.82,2.62-3.3,4.54-.22.9-.69,2.14.31,2.72.52.3,1.6-.07,2.29-.4,4.62-2.25,9.2-4.58,13.78-6.89a3.44,3.44,0,0,0,2.12-3.29m71.66.18a1.37,1.37,0,0,0-1.89-.69q-13,4.83-26,9.76a2,2,0,0,0-1.37,2.36c.43,1.55,1.64.76,2.42.48q12.36-4.54,24.66-9.21a3,3,0,0,0,2.21-2.7" transform="translate(0 0)"/><path class="c" d="M81.42,118.07q19.21,0,38.42,0c3.37,0,6.73.26,6.64,4.71s-3.53,4.65-6.82,4.66q-38.42,0-76.84,0c-3.36,0-6.71-.52-6.66-4.85s3.53-4.52,6.84-4.52H81.42" transform="translate(0 0)"/><path class="c" d="M51.9,102c0-7.66,1.69-9,8.67-7.15,4.14,1.1,5,3.79,3.28,7.17-.93,1.84-1.43,3.19-.24,5,.6.9,1.62,2.1,0,2.93-1.21.63-2.24-.14-3-1.14-.59-.8-1-1.71-1.66-2.49-1.32-1.65-2.64-2.37-3.37.43-.32,1.22.06,3-2,2.81-2.21-.22-1.64-2.14-1.74-3.53s0-2.66,0-4" transform="translate(0 0)"/><path class="c" d="M83.14,107.75a1.44,1.44,0,0,1-1,2,2.08,2.08,0,0,1-2.57-1c-2.31-3.36-4.71-3.24-7-.09-.71,1-1.46,1.33-2.49.88-1.2-.53-1-1.6-.69-2.55,1.14-3.46,2.17-7,3.57-10.31,1.22-2.91,4.9-3.33,6.12-.64,1.7,3.75,2.76,7.79,4.1,11.7" transform="translate(0 0)"/><path class="c" d="M110.46,99.26c2.26-.9,2.69-3.24,4.39-4.31.73-.46,1.57-.79,2.31-.19.9.73.39,1.59-.23,2.13-3.71,3.25-1.57,6.09.46,9.06.75,1.09,2.57,2.49.84,3.75-1.51,1.1-2.65-.47-3.54-1.75-1.84-2.67-3.76-6-5.24.21a1.58,1.58,0,0,1-1.75,1.39c-1.23-.05-1.72-.89-1.75-2a68.93,68.93,0,0,1,0-7.48c.15-1.77-1.16-4.55,1.75-5s1.07,3,2.8,4.16" transform="translate(0 0)"/><path class="c" d="M95,110.51c-3.39-.24-6-1.68-7.34-5a7.69,7.69,0,0,1,1.87-8.71c2.06-2.14,4.62-3.3,7.66-2.32.85.27,2.17.44,2.08,1.76S98,97.53,97,97.41c-3.77-.43-5.72,1.18-5.66,5s2.11,5.33,5.85,4.71c1-.16,2.49-.22,2.26,1.09-.41,2.3-2.61,2.07-4.42,2.28" transform="translate(0 0)"/><path class="c" d="M45.84,95.71c-.16.4-.23.9-.41.95-5.51,1.41-3.25,5.95-3.78,9.35-.21,1.36.47,3.4-1.79,3.43s-1.56-2-1.82-3.37c-.62-3.31,2.09-7.87-3.62-9.31-.91-.23-.72-1.62.21-1.91a20.16,20.16,0,0,1,10.26-.11c.38.08.65.65.95,1" transform="translate(0 0)"/><path class="c" d="M81.4,239.67c-8.41,0-14.58-6-14.7-14.33a14.83,14.83,0,0,1,14.62-15.19c8,0,15.13,7.19,15,15.11A14.66,14.66,0,0,1,81.4,239.67m5.48-14.43c-.39-3.12-2-5.35-5.27-5.53S76.2,221.6,76,224.8s1.73,5.38,5.09,5.53,5.1-1.89,5.77-5.08" transform="translate(0 0)"/><path class="c" d="M71.3,21h14c3.06,0,5.32,1.07,5.36,4.49,0,3.2-2.19,4.35-5,4.37q-14.72.09-29.45-.05c-2.81,0-5-1.42-5-4.45S53.44,21,56.33,21c5,0,10,0,15,0" transform="translate(0 0)"/><path class="c" d="M103.7,20.94c3.85,0,7.51-.06,7.6,4.27.09,4.68-3.8,4.63-7.15,4.67s-6.88-.4-6.78-4.59,3.57-4.56,6.33-4.35" transform="translate(0 0)"/><path class="c" d="M204,91.47c-10.82-.14-20.1-9.67-19.84-20.35a20.08,20.08,0,0,1,40.15.48c-.06,10.77-9.51,20-20.31,19.87m11-20c0-5.66-5.34-10.89-10.95-10.75a11.06,11.06,0,0,0-10.46,10.69,10.71,10.71,0,0,0,21.41.05" transform="translate(0 0)"/></g></svg>
