<svg xmlns="http://www.w3.org/2000/svg" xmlns:xlink="http://www.w3.org/1999/xlink" viewBox="0 0 244.85 243.33"><defs><style>.a{fill:none;}.b{clip-path:url(#a);}.c{fill:#262424;}</style><clipPath id="a" transform="translate(0 0)"><rect class="a" width="244.85" height="243.33"/></clipPath></defs><title>list_1</title><g class="b"><path class="c" d="M0,163.76c0-7.54,0-15.08,0-22.61a6.62,6.62,0,0,1,3.76-6.46c5.21-2.79,10.32-5.76,15.52-8.56A3.11,3.11,0,0,0,21.24,123c-.06-13.72.08-27.44-.11-41.15-.06-4.08,1.48-6.46,5-8.38,15.57-8.48,31-17.18,46.53-25.75A2.62,2.62,0,0,0,74.23,45c-.07-5.15,0-10.3-.06-15.45a5.91,5.91,0,0,1,3.26-5.72q18.2-10.11,36.4-20.2c1.56-.87,3.2-1.63,4.69-2.61A5.88,5.88,0,0,1,125.11,1l18.62,10.35,19.77,11a5.47,5.47,0,0,0,2.28.75,5.33,5.33,0,0,1,4.54,7.67,6.44,6.44,0,0,0-.61,2.81c0,3.85.06,7.7,0,11.55a2.67,2.67,0,0,0,1.56,2.71q15.38,8.47,30.72,17l17.34,9.64a5.74,5.74,0,0,1,3.18,5.43c0,14.42,0,28.85,0,43.27a2.75,2.75,0,0,0,1.66,2.8c4.4,2.35,8.74,4.8,13.1,7.23a7.05,7.05,0,0,0,2.75.88,5.38,5.38,0,0,1,4.27,7.85,6,6,0,0,0-.6,2.81c0,13.72,0,27.44,0,41.16a6.78,6.78,0,0,1-3.89,6.67Q219.48,203.68,199.26,215a6.24,6.24,0,0,1-6.75,0c-2.47-1.47-5-2.77-7.53-4.19a2.36,2.36,0,0,0-2.58,0c-18.56,10.34-37.17,20.61-55.69,31-3.27,1.84-6,2.06-9.37.15-18-10.19-36.18-20.15-54.24-30.29-2.12-1.19-3.8-1.52-5.9-.07S53,213.91,51,215.13a5.78,5.78,0,0,1-6.17,0l-30-16.64c-3.46-1.92-6.87-3.95-10.4-5.73A7.16,7.16,0,0,1,0,185.56c.15-7.26,0-14.53,0-21.8m148.07-.13h0c0-7.37.1-14.75,0-22.12-.06-3.42,1.37-5.54,4.3-7.15q20.17-11.07,40.24-22.33a6.11,6.11,0,0,1,6.46-.06c3.55,2,7.12,3.93,10.69,5.88,1.79,1,1.81,1,1.81-1,0-10.47-.06-20.93.06-31.4a3.94,3.94,0,0,0-2.4-4q-19-10.42-38-21c-1.31-.73-1.53-.37-1.52.93,0,4.66,0,9.33,0,14a6.18,6.18,0,0,1-3.46,6q-20.79,11.46-41.55,23a5.7,5.7,0,0,1-5.88-.09c-6.77-3.77-13.56-7.51-20.34-11.27S84.76,85.2,77.87,81.43a6.38,6.38,0,0,1-3.71-6.29c.14-4.61,0-9.22,0-13.83,0-1.72-.1-1.78-1.6-1Q52.89,71.26,33.19,82.17A1.83,1.83,0,0,0,32.12,84q0,16.68,0,33.35c0,1.2.31,1.45,1.39.84,3.5-2,7.1-3.75,10.51-5.85,2.7-1.66,5.08-1.46,7.75,0,12.43,7,24.91,13.88,37.37,20.81a6.81,6.81,0,0,0,2.74.88,5.37,5.37,0,0,1,4.41,7.67,7.5,7.5,0,0,0-.72,3.43c0,13.61,0,27.22,0,40.83a6.6,6.6,0,0,1-3.83,6.53c-6.41,3.42-12.72,7-19.1,10.49-1.07.59-1.18.94,0,1.52,1.5.75,3,1.6,4.42,2.42Q98.85,219,120.6,231.13a2.47,2.47,0,0,0,2.71,0q23.73-13.21,47.48-26.38c.42-.23,1.07-.38,1.1-.87,0-.65-.72-.72-1.16-1q-9.52-5.29-19.07-10.55a6.31,6.31,0,0,1-3.56-6.07c.06-7.54,0-15.07,0-22.61m-94.84,20q0,7.89,0,15.78c0,1.71.06,1.75,1.6.94.77-.4,1.49-.88,2.25-1.3,8.59-4.74,17.18-9.49,25.79-14.18A2.91,2.91,0,0,0,84.69,182q-.09-15.54,0-31.07c0-1.51-.38-1.46-1.52-.84q-14.28,7.78-28.61,15.47a2.17,2.17,0,0,0-1.29,2.18c0,5.31,0,10.63,0,15.94m137.13-.12c0-5.26,0-10.51,0-15.77a2.24,2.24,0,0,0-1.36-2.31c-1.75-.87-3.45-1.83-5.16-2.76q-11.72-6.36-23.43-12.73c-1-.57-1.47-.62-1.47.8q.06,15.94,0,31.87a1.82,1.82,0,0,0,1.06,1.81q14.46,7.94,28.9,15.94c1.2.66,1.46.32,1.45-.91,0-5.31,0-10.62,0-15.94m-148.07-.07c0-5.26,0-10.52,0-15.78a2.12,2.12,0,0,0-1.29-2.17c-2.69-1.4-5.33-2.9-8-4.35L12.36,149.92c-.65-.35-1.4-1-1.4.55q0,16.1,0,32.2a1.72,1.72,0,0,0,1,1.7q14.46,8,28.89,16c1.22.68,1.55.45,1.53-.94-.05-5.31,0-10.62,0-15.94m159,.08c0,5.36,0,10.73,0,16.09,0,1.18.28,1.46,1.38.85q14.34-8,28.72-15.88a2.29,2.29,0,0,0,1.3-2.34c0-10.29,0-20.59,0-30.88,0-2-.1-2.06-1.85-1.12-9.39,5.07-18.76,10.18-28.16,15.22a2.4,2.4,0,0,0-1.39,2.46c0,5.2,0,10.4,0,15.6m-84.84-111c0-5.2,0-10.41,0-15.62A2.45,2.45,0,0,0,115,54.39q-14.32-7.7-28.58-15.51c-1.22-.67-1.35-.14-1.33.91.08,3.52.22,7.05.13,10.56-.18,7.1,0,14.2-.12,21.3a1.72,1.72,0,0,0,.95,1.72q14.61,8,29.19,16.1c1.08.6,1.27.2,1.26-.83,0-5.37,0-10.74,0-16.11m10.91-.1c0,5.37,0,10.74,0,16.11,0,1.11.17,1.51,1.34.86,9.33-5.2,18.66-10.39,28-15.49a3.35,3.35,0,0,0,2.05-3.54c-.26-6.77.06-13.54-.22-20.32-.13-3.16.13-6.38.18-9.57,0-2.29,0-2.32-2-1.26-9.4,5.07-18.78,10.17-28.19,15.23a2.16,2.16,0,0,0-1.25,2.21c0,5.26,0,10.52,0,15.78m-49,67.45c-.29-.2-.58-.43-.9-.61q-14.37-8-28.74-15.91a1.79,1.79,0,0,0-2,0q-14.14,7.87-28.31,15.69c-.44.25-1.2.31-1.16,1,0,.5.7.62,1.11.85q14.14,7.69,28.29,15.37a2,2,0,0,0,2.11,0c3.18-1.76,6.39-3.46,9.58-5.19q9.51-5.15,19-10.31c.35-.19.85-.25,1-.86m74-111.11c-.46-.28-.94-.62-1.45-.9-9.2-5.09-18.41-10.16-27.59-15.29a2.68,2.68,0,0,0-3,0c-9.27,5.18-18.59,10.29-27.88,15.44-.44.24-1.23.3-1.14.94,0,.32.7.59,1.12.82q14.14,7.7,28.28,15.39a2.07,2.07,0,0,0,2.25-.06c4.56-2.5,9.15-5,13.73-7.43l14.72-8c.36-.2.84-.29.94-1M226.52,140c-.11-.42-.5-.54-.82-.71q-14.31-7.9-28.61-15.81a2.18,2.18,0,0,0-2.4,0c-5.67,3.18-11.38,6.3-17.07,9.45-3.79,2.1-7.57,4.23-11.38,6.3-1.1.59-.92,1,0,1.48,1.3.68,2.58,1.38,3.87,2.07l24.44,13.27c.71.38,1.35.78,2.26.29q14.49-7.92,29-15.77c.28-.15.61-.24.7-.62" transform="translate(0 0)"/></g></svg>