<svg xmlns="http://www.w3.org/2000/svg" xmlns:xlink="http://www.w3.org/1999/xlink" viewBox="0 0 218.26 255.55"><defs><style>.a{fill:none;}.b{clip-path:url(#a);}.c{fill:#262424;}</style><clipPath id="a" transform="translate(0 0)"><rect class="a" width="218.26" height="255.54"/></clipPath></defs><title>list_4</title><g class="b"><path class="c" d="M160.66,178.63c-14,0-28,.12-42-.06-4.15-.05-6.2.67-5.31,5.53.65,3.55.31,7.31.21,11-.14,5-.55,9.78,4.88,12.91,2.43,1.4,3.14,4.68,3.27,7.55a114.14,114.14,0,0,1,0,12c-.44,7.23-5.38,11.83-12.65,12.12a27.47,27.47,0,0,1-4,0c-7.76-.84-13.8,1.26-20,6.86-14.74,13.25-37.89,11.57-52-2.79-3-3-5.9-4.41-10-4.11a95.47,95.47,0,0,1-11,0C5,239.32.58,235,.15,228c-.26-4.15-.1-8.32-.06-12.49a11,11,0,0,1,5.26-9.66c2.3-1.44,3-3.22,2.94-5.79q-.19-8.24,0-16.49A21.13,21.13,0,0,1,22.6,163.87a163.29,163.29,0,0,1,17.29-4.74c3.31-.74,4.69-2.05,4.63-5.65-.14-8.59.05-8.6-8-11.36-17.9-6.19-27.23-19.13-27.26-38q-.06-36.73,0-73.47C9.36,12.8,22,.1,39.77,0q21-.08,42,0c17.39.07,30,12.45,30.19,29.77q.22,20.49,0,41c0,3.8,1,5.45,5.1,5.24,6-.3,12-.1,18-.07,2.29,0,3-.6,2.78-3.24-1-10.52,6.51-19.25,16.62-19.72,10.55-.48,18.8,7.41,18.49,18.28-.11,3.91,1.08,4.84,4.7,4.75,8.16-.21,16.32-.09,24.49-.06,9.92,0,15.93,5.38,16,15.11q.32,36.23,0,72.46c-.08,9.68-5.8,15-15.46,15-14,.08-28,0-42,0m50.77-51.09c0-12,.09-24,0-36-.08-7.44-3.16-8.78-15.49-9.09-7.14-.18-4.79,4.53-5.15,8-.12,1.15,0,2.34-.08,3.49-.24,2.16-1.07,4-3.61,3.92-2.31-.08-3-1.83-3.07-3.83-.1-2.66-.08-5.33-.19-8-.05-1.32-.11-2.63-1.66-3.31-4.32-1.87-14,.31-16.57,4.18-4.7,7-10.42,11.51-19.43,9.65a2.32,2.32,0,0,0-.5,0c-6.8.17-11.24,3.87-11.31,9.42s4.15,9.21,11.19,9.47c5.49.2,11,0,16.49.32a14.22,14.22,0,0,1,13.73,13.86,117.87,117.87,0,0,1,0,15c-.7,9.9-9.32,18.18-18.19,17.91-1.95-.06-3.82-.22-4.11-2.63s1.3-3.42,3.52-3.94c9.1-2.14,12.17-6,12.27-15.36,0-2.83.07-5.67,0-8.5-.22-6.81-3.09-9.55-9.87-9.75-6-.18-12,.58-18-.5-8.21-1.49-14-8.18-13.92-15.84.12-7.91,6.38-15.21,14.59-15.82,5.3-.4,4.45-1.88,2.07-5a6.16,6.16,0,0,0-5.49-2.68c-7,.1-14,.26-21,0-4.42-.2-6.2,1.37-5.65,5.73a16.21,16.21,0,0,1,0,3c-.13,2.24.52,5.15-3,5.28s-3.66-2.65-3.66-5.26c0-7.83,0-15.67,0-23.5,0-1.6.54-3.6-1.37-4.47-5.83-2.65-11-6.76-18-6.66-16.83.25-33.66.18-50.49,0-7.2-.07-12.32,4.55-18.27,7.32-1.56.73-1.28,2.57-1.28,4.06,0,12.83-.38,25.68.13,38.49.54,13.57,7.4,23.28,20.18,28.27,5.41,2.11,11,4.21,16.65,5.15,16.2,2.68,30.42-2.71,43.25-12.22,3.51-2.6,5.54-6.59,7.18-10.67a14.28,14.28,0,0,1,1.43-3.17c.9-1.23,2.1-2.23,3.83-1.31,1.44.77,2.44,1.92,2.09,3.6a23.64,23.64,0,0,1-1.46,4.23C104,133,94,139.95,81.2,143c-5.77,1.38-4.78,5.21-5.05,9.13s1.36,5.73,5.13,6.45,7.37,2.05,11.08,2.94c6.27,1.5,12.13,3.69,16.3,8.94,1.52,1.92,3.58,1.49,5.52,1.5,21.5,0,43-.1,64.49.12,4.41,0,5.31-1.67,5.26-5.55-.15-12.16-.06-24.33,0-36.5,0-4.33.06-8.66.19-13,.06-1.87,1-3.18,3-3.26s3.06,1.23,3.37,3a26,26,0,0,1,.21,4.48q0,19.75,0,39.5c0,11.43,0,11.43,11.28,11.21,6.68-.13,9.37-2.75,9.4-9.45.06-11.67,0-23.33,0-35M105.34,40.64c0-3.8.08-7.59,0-11.39C105,17.87,97.34,8.49,86,7.47a258.08,258.08,0,0,0-51.27.11C20,9.19,10.73,28.1,17.3,42.27c6-11.92,16.16-14.92,28.42-14.41,12,.5,24,.11,35.93.12a28.73,28.73,0,0,1,6.41.69c7.27,1.65,12.2,6.32,17.28,12m1.24,151.18c0-1.67,0-3.33,0-5-.08-10.67-3.75-15.45-14-18.26-4.49-1.23-9-2.35-13.46-3.71-2.86-.87-4.78-.37-6.93,2-5.79,6.41-14.76,8-20.49,2.29-5-4.91-9.36-4-14.62-2.43-3.19.93-6.43,1.7-9.62,2.64C19,171.83,15,177.08,14.86,185.7c-.05,4.33.28,8.69-.09,13-.41,4.69,2,5.2,5.74,5,2.82-.12,3.45-2.07,4.42-4,6.8-13.52,17.53-21.66,32.78-22.82,17-1.29,31.55,7.25,38.77,22.73,1.86,4,4.44,4.65,7.9,3.92,3.75-.79,1.75-4.06,2.12-6.23a33.27,33.27,0,0,0,.06-5.49m-70.63,31h-.07c0,3.66.19,7.34-.07,11a6.32,6.32,0,0,0,2,5.32C50,251.7,72.18,251.57,84,238.79c1.09-1.18,2-2.21,1.85-4.27-.42-7.47-.36-15-.46-22.44,0-2.63.65-5.14,2.84-6.62,2.72-1.85,2.12-3.73.75-5.88-6.44-10.1-15.46-15.93-27.61-16.07-12.52-.15-22,5.45-28.65,16-1.49,2.35-2.23,4.29.89,6.13,2,1.16,2.39,3.46,2.37,5.74,0,3.83,0,7.66,0,11.49M101.31,54.21C97.36,40,92,34.73,81.69,34.62q-20.74-.24-41.48,0c-10.64.12-18.53,8.12-19.09,19.59,7.54-5.75,16-4,24.25-4.16s16.67-.32,25,0c10.13.44,20.63-2.45,31,4.12M92,221.37a45.9,45.9,0,0,1,0,5.49c-.57,4.7,1.13,6.84,6.08,6.21a61.49,61.49,0,0,1,7.49,0c7.91,0,9.52-1.65,9.59-9.71.1-12.17-.57-12.87-12.39-12.87-10.73,0-10.73,0-10.73,10.92m-62.71.53c0-2.82,0-5.65,0-8.47,0-1.4-.21-2.84-2-2.85-5.48,0-11.34-1.16-16.33.42-7.46,2.35-3.34,9.66-4.13,14.81-.54,3.5,1,6.3,4.74,7A34.64,34.64,0,0,0,18,233c11.31,0,11.31,0,11.27-11.12M166.47,71c-.35-5.27-2.65-8.63-7.05-10.5s-8.55-.72-11.85,2.59-4.19,7.12-2.15,11.41a49.69,49.69,0,0,0,8.28,11.79c.78.87,1.68,1.95,2.84.62,4.23-4.88,8.52-9.74,9.93-15.9M60.59,147.39c-2.17,0-4.33.05-6.49,0-1.27,0-2.49,0-2.6,1.56-.29,4.14-.9,8.42,1.38,12.19,2.1,3.49,5.42,4.81,9.45,4a8.29,8.29,0,0,0,7-7.45c1.44-9.44.82-10.11-8.74-10.29" transform="translate(0 0)"/><path class="c" d="M136.38,134.75A12.15,12.15,0,0,1,144,156.43c-2.5,1.81-4.78,3.24-4.4,6.93.18,1.7-1.26,3.06-3.24,3.09s-3.23-1.18-3.07-3.1c.28-3.37-1.63-4.9-4.14-6.6a12.11,12.11,0,0,1,7.21-22" transform="translate(0 0)"/><path class="c" d="M200.11,133.89c-3.34-.4-5.75-2.26-5.64-6s2.36-5.84,6-5.85,5.93,2.53,5.92,6-2.31,5.69-6.33,5.84" transform="translate(0 0)"/><path class="c" d="M36.82,83.69c-3.35-.26-5.46-2-5.45-5.58,0-3.32,2-5.18,5.26-5.33,3.57-.16,5.81,2,5.9,5.27s-2,5.43-5.72,5.63" transform="translate(0 0)"/><path class="c" d="M84.43,72.74c3.17.16,5.32,1.62,5.48,5.06s-1.63,5.7-5.25,5.81-5.59-1.94-5.59-5.49c0-3.33,1.93-5.13,5.36-5.38" transform="translate(0 0)"/><path class="c" d="M60.93,237.61c-12.43,0-21.78-9.25-21.78-21.65A21.67,21.67,0,0,1,60.92,194,22.33,22.33,0,0,1,82.73,215.7c.24,11.9-9.69,21.87-21.8,21.91" transform="translate(0 0)"/></g></svg>