<?xml version="1.0" encoding="iso-8859-1"?>
<!-- Generator: Adobe Illustrator 19.0.0, SVG Export Plug-In . SVG Version: 6.00 Build 0)  -->
<svg version="1.1" id="Capa_1" xmlns="http://www.w3.org/2000/svg" xmlns:xlink="http://www.w3.org/1999/xlink" x="0px" y="0px"
	 viewBox="0 0 512 512" style="enable-background:new 0 0 512 512;fill:#961a37;" xml:space="preserve">
<g>
	<g>
		<path d="M426.72,384.011h-64.16c-2.802-0.003-5.488-1.12-7.467-3.104c-2.035-2.018-3.172-4.77-3.155-7.635
			c0.034-5.892,4.838-10.64,10.729-10.605H384h21.312h21.355c5.891,0,10.667,4.776,10.667,10.667h21.333c0-17.673-14.327-32-32-32
			h-21.355V320H384v21.333h-21.333c-17.673,0-32,14.327-32,32c0,0.018,0,0.036,0,0.053c-0.012,17.632,14.272,31.935,31.904,31.947
			h64.171c5.891,0.021,10.65,4.813,10.629,10.704s-4.813,10.65-10.704,10.629h-64c-5.891,0-10.667-4.776-10.667-10.667h-21.333
			c0,17.673,14.327,32,32,32H384v21.333h21.312V448h21.355c17.216-0.3,31.109-14.169,31.437-31.385
			C458.441,398.945,444.39,384.348,426.72,384.011z"/>
	</g>
</g>
<g>
	<g>
		<path d="M256,0C114.615,0,0,114.615,0,256s114.615,256,256,256v-21.333C126.397,490.667,21.333,385.603,21.333,256
			S126.397,21.333,256,21.333S490.667,126.397,490.667,256H512C512,114.615,397.385,0,256,0z"/>
	</g>
</g>
<g>
	<g>
		<path d="M394.667,277.333c-64.801,0-117.333,52.532-117.333,117.333S329.865,512,394.667,512
			c64.77-0.076,117.257-52.564,117.333-117.333C512,329.865,459.468,277.333,394.667,277.333z M394.667,490.667
			c-53.019,0-96-42.981-96-96c0-53.019,42.981-96,96-96c52.993,0.065,95.935,43.007,96,96
			C490.667,447.686,447.686,490.667,394.667,490.667z"/>
	</g>
</g>
<g>
	<g>
		<path d="M266.646,214.672V128h-21.312v86.678c-18.402,4.737-32,21.441-32,41.322c0,7.913,2.162,15.318,5.916,21.67l-56.125,56.125
			l15.062,15.062l56.12-56.12c6.357,3.762,13.771,5.929,21.693,5.929c23.564,0.001,42.667-19.102,42.667-42.666
			C298.667,236.111,285.059,219.402,266.646,214.672z M256,277.333c-11.782,0-21.333-9.551-21.333-21.333
			c0-11.782,9.551-21.333,21.333-21.333c11.782,0,21.333,9.551,21.333,21.333C277.333,267.782,267.782,277.333,256,277.333z"/>
	</g>
</g>
<g>
	<g>
		<path d="M256,42.667C138.18,42.667,42.667,138.179,42.667,256S138.179,469.333,256,469.333V448
			c-49.181,0-94.034-18.5-128.004-48.909l29.935-29.935l-15.062-15.062l-29.937,29.937c-28.213-31.506-46.174-72.379-48.634-117.385
			h42.368v-21.312H64.3c2.464-44.991,20.418-85.851,48.62-117.35l29.952,29.952l15.062-15.062l-29.952-29.952
			c31.499-28.203,72.359-46.157,117.351-48.621v42.367h21.312v-42.37c45,2.46,85.867,20.415,117.371,48.621l-29.934,29.934
			l15.062,15.062l29.934-29.934C429.495,161.954,448,206.813,448,256h21.333C469.333,138.179,373.82,42.667,256,42.667z"/>
	</g>
</g>
<g>
</g>
<g>
</g>
<g>
</g>
<g>
</g>
<g>
</g>
<g>
</g>
<g>
</g>
<g>
</g>
<g>
</g>
<g>
</g>
<g>
</g>
<g>
</g>
<g>
</g>
<g>
</g>
<g>
</g>
</svg>
