<svg height="496pt" viewBox="0 0 496 496" width="496pt" xmlns="http://www.w3.org/2000/svg"><path d="m336 88c-16.71875 0-32.839844 2.601562-48 7.375v-55.375c0-22.054688-17.945312-40-40-40h-208c-22.054688 0-40 17.945312-40 40v416c0 22.054688 17.945312 40 40 40h208c22.054688 0 40-17.945312 40-40v-55.375c15.160156 4.773438 31.28125 7.375 48 7.375 88.222656 0 160-71.777344 160-160s-71.777344-160-160-160zm108.65625 65.792969-7.054688 9.40625c-6.015624 8.015625-15.585937 12.800781-25.601562 12.800781s-19.585938-4.785156-25.601562-12.800781c-9.015626-12.023438-23.375-19.199219-38.398438-19.199219h-11.433594c-12.8125 0-24.863281 4.992188-33.941406 14.0625l-8.5625 8.5625c-6.046875 6.046875-14.085938 9.375-22.628906 9.375h-6.859375c-8.542969 0-16.582031-3.328125-22.628907-9.367188l-13.753906-13.761718c26.402344-29.894532 64.886719-48.871094 107.808594-48.871094 43.367188 0 82.230469 19.359375 108.65625 49.792969zm-268.65625 94.207031c0 19.71875 3.761719 38.542969 10.3125 56h-122.3125v80h160v-21.929688c5 4.914063 10.390625 9.402344 16 13.625v24.304688h-192v-304h192v24.304688c-5.609375 4.222656-11 8.710937-16 13.625v-21.929688h-160v80h122.3125c-6.550781 17.457031-10.3125 36.28125-10.3125 56zm32 95.59375v24.40625h-128v-48h113.3125c4.214844 8.320312 9.144531 16.183594 14.6875 23.59375zm-14.6875-167.59375h-113.3125v-48h128v24.40625c-5.542969 7.410156-10.472656 15.273438-14.6875 23.59375zm-153.3125-160h208c13.230469 0 24 10.769531 24 24v8h-256v-8c0-13.230469 10.769531-24 24-24zm-24 440v-8h100.449219c-2.753907 4.726562-4.449219 10.144531-4.449219 16s1.695312 11.273438 4.449219 16h-76.449219c-13.230469 0-24-10.769531-24-24zm144 8c0 8.824219-7.175781 16-16 16s-16-7.175781-16-16 7.175781-16 16-16 16 7.175781 16 16zm88 16h-76.449219c2.753907-4.726562 4.449219-10.144531 4.449219-16s-1.695312-11.273438-4.449219-16h100.449219v8c0 13.230469-10.769531 24-24 24zm24-48h-256v-368h256v37.457031c-5.519531 2.414063-10.832031 5.191407-16 8.199219v-29.65625h-224v336h224v-29.648438c5.167969 3 10.480469 5.777344 16 8.199219zm-79.59375-176h29.707031c7.984375 0 15.167969 4.441406 18.734375 11.574219 6.304688 12.601562 18.96875 20.425781 33.039063 20.425781h14.113281c17.648438 0 32-14.351562 32-32 0-8.824219 7.175781-16 16-16s16 7.175781 16 16v19.089844c0 15.988281 9.59375 30.167968 24.449219 36.101562l1.167969.464844c8.734374 3.503906 14.382812 11.847656 14.382812 21.253906 0 14.824219 8.230469 28.152344 21.496094 34.785156l1.335937.671876c-22.671875 14.890624-49.734375 23.632812-78.832031 23.632812-76.695312 0-139.40625-60.328125-143.59375-136zm236.738281 101.625-8.488281-4.25c-7.816406-3.894531-12.65625-11.734375-12.65625-20.464844 0-15.988281-9.59375-30.167968-24.449219-36.101562l-1.167969-.464844c-8.734374-3.503906-14.382812-11.847656-14.382812-21.253906v-19.089844c0-17.648438-14.351562-32-32-32s-32 14.351562-32 32c0 8.824219-7.175781 16-16 16h-14.113281c-7.984375 0-15.167969-4.441406-18.734375-11.574219-6.304688-12.601562-18.96875-20.425781-33.039063-20.425781h-29.707031c1.53125-27.625 10.777344-53.175781 25.761719-74.519531l12.457031 12.464843c9.078125 9.0625 21.136719 14.054688 33.941406 14.054688h6.859375c12.8125 0 24.863281-4.992188 33.941407-14.0625l8.5625-8.5625c6.054687-6.046875 14.09375-9.375 22.636718-9.375h11.433594c10.015625 0 19.585938 4.785156 25.601562 12.800781 9.015626 12.023438 23.375 19.199219 38.398438 19.199219s29.382812-7.175781 38.398438-19.199219l4.457031-5.945312c4.976562 7.273437 9.265625 15.039062 12.863281 23.183593l-11.253906 6.753907c-12.226563 7.335937-26.21875 11.207031-40.464844 11.207031-17.648438 0-32 14.351562-32 32s14.351562 32 32 32c6.433594 0 12.128906 3.855469 14.511719 9.824219l4.113281 10.296875c4.847656 12.070312 16.367188 19.878906 29.375 19.878906h.808594c-8.753906 17.527344-20.886719 33.046875-35.664063 45.625zm42.457031-61.625h-7.601562c-6.433594 0-12.128906-3.855469-14.511719-9.824219l-4.113281-10.296875c-4.847656-12.070312-16.367188-19.878906-29.375-19.878906-8.824219 0-16-7.175781-16-16s7.175781-16 16-16c17.160156 0 33.992188-4.664062 48.695312-13.488281l8.816407-5.289063c4.214843 13.519532 6.488281 27.890625 6.488281 42.777344 0 16.847656-3.0625 32.960938-8.398438 48zm0 0"/><path d="m96 240h64v16h-64zm0 0"/><path d="m64 240h16v16h-16zm0 0"/><path d="m80 208h16v16h-16zm0 0"/><path d="m112 208h48v16h-48zm0 0"/><path d="m80 272h16v16h-16zm0 0"/><path d="m112 272h48v16h-48zm0 0"/></svg>