<svg xmlns="http://www.w3.org/2000/svg" viewBox="0 0 288.43 118.9">
    <defs>
        <style>.a{fill:none;}.b{clip-path:url(#a);}.c{fill:#fff;}</style>
        <clipPath id="a" transform="translate(0 0)">
            <rect class="a" width="288.43" height="118.9"/>
        </clipPath>
    </defs>
    <title>truck</title>
    <g class="b">
        <path class="c"
              d="M82.56,5.93c24.82,0,49.64,0,74.46,0,4.29,0,7.72.44,7.66,5.91,0,2.49,2,2.23,3.64,2.24,6.83,0,13.66,0,20.49,0,5.44,0,6.68,1.29,6.69,6.85q0,38.48,0,77c0,5.89-1,6.86-7.1,6.89-6.5,0-13,.08-19.49,0-2.74,0-4.44.52-4.43,3.78,0,3-2.06,4.37-4.92,4.48-2.49.1-5,.1-7.49.1H10.14C.45,113.11,0,112.66,0,103Q0,58.73,0,14.5C0,6.74.79,5.94,8.6,5.94q37,0,74,0"
              transform="translate(0 0)"/>
        <path class="c"
              d="M228.18,118.9c-.05-7.16-.05-7.16-7.75-7.16-11.82,0-23.65,0-35.47,0a14.79,14.79,0,0,1-10.34-3.65c6,0,10.59-.06,15.16,0,2.83.05,5.64-.48,7-2.93,1.73-3.06,4.14-3.23,7.08-3.18,7.13.11,14.26,0,21.4-.4-7.38-1.87-14.89-2.41-22.41-2.7-2.93-.11-4.07-.87-4.05-4q.17-35.47,0-70.94c0-3.41,1.3-4.08,4.37-4.24,7.11-.38,14.19-1.19,21.28-1.82q0-.62,0-1.24c-6.63,0-13.25,0-19.88,0-3.15,0-6.11.31-8.06-3.31-1.19-2.22-4-2.76-6.63-2.72-4.79.08-9.58,0-15.44,0,3.51-3.19,6.8-3.64,10.26-3.64h36c7.69,0,7.69,0,7.35-7a2.17,2.17,0,0,1,2.34,1.5c2.22,5.56,6.62,6,11.73,5.6,4.31-.32,8.66,0,13-.08,10.34-.18,16.93,5.2,21.87,13.82,5.16,9,9.85,18,11,28.56,1.69,15.15-1.43,29.07-7.74,43-7.06,15.57-18.07,21.67-34.51,19.34-1.14-.16-2.34.08-3.49,0-5-.51-9.57-.18-11.76,5.48a2.55,2.55,0,0,1-2.28,1.69M206.57,59.16c0,9.83.33,19.67-.14,29.47-.24,5,1.61,6.74,6.18,7.34,5.92.78,11.77,2.1,17.67,3.09,8.79,1.48,9.84.77,13.29-7.58,6.16-14.91,6.62-30.44,4.93-46.13a61.49,61.49,0,0,0-7.25-22.15c-1.43-2.69-3.13-5-7-4.19-7.79,1.67-15.61,3.28-23.49,4.41-3.58.51-4.26,2.14-4.23,5.26.12,10.16,0,20.32,0,30.48m53.94,45.14c5.23.19,8-2.62,10.06-6.08a111.41,111.41,0,0,0,6.11-11.42c1.1-2.41,4-6.15,1.94-7.38-2.82-1.68-6,1.41-8.42,3.81A7.47,7.47,0,0,0,269,84.79c-3.41,6.07-5.7,12.6-8.46,19.51m-.25-89.8c2.89,6.74,5.24,12.56,7.89,18.25a12.89,12.89,0,0,0,7.66,6.75c1.1.39,2.32,1,3.3.14,1.19-1,.06-2.27-.38-3.13-2.73-5.3-5.4-10.67-8.58-15.7-1.93-3.05-4.93-5.25-9.89-6.31"
              transform="translate(0 0)"/>
    </g>
</svg>
