<svg height="511pt" style="fill:#fff;" viewBox="-36 0 511 511.99988" width="511pt" xmlns="http://www.w3.org/2000/svg"><path d="m168.191406 460.539062c0-13.40625-10.90625-24.316406-24.3125-24.316406s-24.316406 10.910156-24.316406 24.316406 10.910156 24.316407 24.316406 24.316407 24.3125-10.910157 24.3125-24.316407zm-33.628906 0c0-5.136718 4.179688-9.316406 9.3125-9.316406 5.140625 0 9.316406 4.179688 9.316406 9.316406 0 5.136719-4.179687 9.316407-9.316406 9.316407-5.132812 0-9.3125-4.179688-9.3125-9.316407zm0 0"/><path d="m169.203125 161.308594c-2.929687-2.929688-7.679687-2.929688-10.609375 0l-20.027344 20.03125-9.40625-9.40625c-2.925781-2.929688-7.675781-2.929688-10.601562 0-2.933594 2.929687-2.933594 7.675781-.003906 10.605468l14.710937 14.707032c1.40625 1.40625 3.3125 2.199218 5.300781 2.199218 1.992188 0 3.898438-.792968 5.304688-2.199218l25.332031-25.332032c2.925781-2.925781 2.925781-7.675781 0-10.605468zm0 0"/><path d="m199.707031 179.277344c0-30.785156-25.046875-55.828125-55.832031-55.828125-30.78125 0-55.828125 25.046875-55.828125 55.828125 0 30.785156 25.046875 55.828125 55.828125 55.828125 30.789062 0 55.832031-25.042969 55.832031-55.828125zm-96.660156 0c0-22.511719 18.316406-40.828125 40.832031-40.828125 22.511719 0 40.828125 18.316406 40.828125 40.828125 0 22.515625-18.316406 40.832031-40.828125 40.832031-22.515625 0-40.832031-18.316406-40.832031-40.832031zm0 0"/><path d="m118.628906 29.789062c-4.144531 0-7.5 3.355469-7.5 7.496094 0 4.144532 3.355469 7.5 7.5 7.5h50.5c4.140625 0 7.5-3.355468 7.5-7.5 0-4.140625-3.359375-7.496094-7.5-7.496094zm0 0"/><path d="m161.375 511.929688h95.285156c16.414063 0 29.84375-12.992188 30.558594-29.230469 4.578125.453125 6.085938.3125 22.433594.234375h.042968c6.457032 0 14.804688 7.761718 19.460938 12.5 6.09375 6.09375 23.078125 28.285156 42.796875 8.566406.464844-.460938 61.847656-61.804688 62.253906-62.320312 8.144531-10.210938 7.019531-22.292969-3.003906-32.316407-.003906 0-.003906-.003906-.003906-.003906-11.929688-11.917969-14.039063-14.023437-14.449219-14.433594-14.96875-14.949219 3.453125-33.03125-21.449219-57.886719-41.527343-41.464843-69.988281-69.988281-73.515625-73.515624-9.496094-9.5-24.539062-9.914063-34.527344-1.371094v-65.375c0-4.140625-3.359374-7.5-7.5-7.5-4.144531 0-7.5 3.359375-7.5 7.5v82.371094c-5.753906.804687-11.097656 3.511718-15.269531 8.074218 0-8.027344 0-206.355468 0-214.066406 0-6.773438-5.511719-12.285156-12.289062-12.285156-11.007813 0-193.550781 0-201.640625 0-6.777344 0-12.289063 5.511718-12.289063 12.285156v338.230469c0 8.476562 6.898438 15.375 15.378907 15.375h123.628906c1.460937 8.890625 7.175781 16.101562 16.179687 19.453125.089844.035156 82.40625 32.285156 82.496094 32.320312h.003906c1 .34375 1.855469.652344 3.800781 1.214844v1.585938c0 8.597656-6.996093 15.59375-15.597656 15.59375h-95.285156c-4.140625 0-7.496094 3.359374-7.496094 7.5 0 4.144531 3.355469 7.5 7.496094 7.5zm134.992188-237.804688c4.09375-4.089844 10.714843-4.089844 14.808593 0 1.273438 1.273438 14.085938 14.171875 73.527344 73.527344 20.300781 20.265625.15625 36.625 21.445313 57.886718.003906.003907.011718.007813.015624.015626.460938.457031 14.308594 14.292968 14.433594 14.414062 5.546875 5.550781 4.382813 9.09375 2.121094 12.058594l-61.371094 61.367187c-7.703125 7.707031-11.132812 1.640625-21.632812-8.617187-8.527344-8.378906-18.21875-16.84375-30.136719-16.84375-13.753906.066406-23.015625 1.042968-35.871094-3.449219l-82.347656-32.261719c-.046875-.019531-.09375-.035156-.140625-.054687-5.460938-2.015625-7.421875-7.050781-6.648438-11.695313.972657-5.800781 5.5-9.777344 14.542969-8.558594l44.398438 6.003907c4.851562.65625 9.578125-1.851563 11.757812-6.246094 2.175781-4.398437 1.300781-9.675781-2.160156-13.136719l-116.820313-116.816406c-4.09375-4.089844-4.113281-10.730469-.046874-14.804688 4.089843-4.09375 10.75-4.097656 14.839843-.011718.617188.617187 78.898438 78.886718 108.632813 108.621094 2.929687 2.929687 7.675781 2.929687 10.605468 0 2.929688-2.929688 2.929688-7.679688 0-10.605469l-30.777343-31.152344c-4.082031-4.082031-4.082031-10.726563 0-14.808594 4.011719-4.011719 10.679687-4.125 14.808593 0 1 1.003907 26.832032 26.832031 30.964844 30.964844 2.929688 2.929687 7.675782 2.929687 10.605469 0s2.929687-7.675781 0-10.605469l-27.53125-27.53125c-.003906 0-.003906-.003906-.003906-.003906-3.996094-3.992188-4.125-10.519531-.136719-14.664062 4.132812-4.296876 10.902344-4.1875 14.941406-.144532.089844.085938 27.449219 27.449219 27.539063 27.535156 2.929687 2.929688 7.675781 2.929688 10.605469 0 2.925781-2.929687 2.925781-7.675781 0-10.605468l-24.960938-24.960938c-.003906 0-.003906-.003906-.007812-.003906-4.082032-4.085938-4.082032-10.726562 0-14.8125zm-54.378907-179.027344h-160.269531v-19.230468h160.269531zm-196.222656-19.230468h20.953125v19.226562h-20.953125zm0 335.515624v-301.289062h196.222656v191.277344c-8.648437 1.695312-15.933593 7.894531-18.976562 16.238281-61.269531-61.269531-50.816407-50.820313-61.332031-61.320313-9.949219-9.933593-26.121094-9.917968-36.054688.027344-9.910156 9.929688-9.878906 26.082032.0625 36.007813l109.304688 109.308593-33.765626-4.566406c-.011718-.003906-.027343-.003906-.042968-.007812-14.082032-2.28125-24.949219 4.109375-29.5625 14.707031h-125.476563c-.207031 0-.378906-.171875-.378906-.382813zm0 0"/><path d="m279.753906 169.277344c4.144532 0 7.5-3.355469 7.5-7.496094v-131.1875c0-16.867188-13.722656-30.59375-30.59375-30.59375h-225.566406c-16.867188 0-30.59375 13.726562-30.59375 30.59375v450.738281c0 16.871094 13.726562 30.597657 30.597656 30.597657h95.28125c4.144532 0 7.5-3.359376 7.5-7.5 0-4.140626-3.355468-7.5-7.5-7.5h-95.28125c-8.601562 0-15.597656-6.996094-15.597656-15.597657v-450.738281c0-8.597656 6.996094-15.59375 15.59375-15.59375h225.566406c8.597656 0 15.59375 6.996094 15.59375 15.59375v131.1875c0 4.140625 3.359375 7.496094 7.5 7.496094zm0 0"/></svg>
