<svg xmlns="http://www.w3.org/2000/svg" xmlns:xlink="http://www.w3.org/1999/xlink" viewBox="0 0 335.73 123.16"><defs><style>.a{fill:none;}.b{clip-path:url(#a);}.c{fill:#e3eaee;}.d{fill:#e3eaee;}</style><clipPath id="a" transform="translate(0 0)"><rect class="a" width="335.73" height="123.16"/></clipPath></defs><title>logo</title><g class="b"><path class="c" d="M323.63,73.63,292.75,70.4c-7.83-32-45.46-41.86-55.13-43.87a.94.94,0,0,0-1.12.93v9.09a3.1,3.1,0,0,0,2.29,3c11.8,3.14,39.2,13,42.63,37.4l.67,4.8,38.93,4a3.53,3.53,0,0,1,2.33,3.57v21.46H3.11A3.12,3.12,0,0,0,0,113.9v8.56a.69.69,0,0,0,.69.69h335V89.32a16,16,0,0,0-12.1-15.69" transform="translate(0 0)"/><path class="d" d="M23.8,0a12.18,12.18,0,0,1,4.28.71,9.93,9.93,0,0,1,3.22,1.9,8.09,8.09,0,0,1,2,2.83A8.91,8.91,0,0,1,34,9V38q0,.9-1.09.9h-2.7a4,4,0,0,1-1.7-.45,1.68,1.68,0,0,1-.93-1.67V9.2a3.43,3.43,0,0,0-.9-2.32,3.75,3.75,0,0,0-3-1,3.64,3.64,0,0,0-2.93,1,3.5,3.5,0,0,0-.87,2.32V79.7a3.3,3.3,0,0,0,.9,2.28,3.81,3.81,0,0,0,3,1,3.56,3.56,0,0,0,3-1.06,3.63,3.63,0,0,0,.8-2.22V52.17a1.69,1.69,0,0,1,.93-1.67,4,4,0,0,1,1.7-.45h2.64q1.16,0,1.16.9V79.83a8.32,8.32,0,0,1-2.77,6.4,10.79,10.79,0,0,1-7.59,2.54,12.7,12.7,0,0,1-4.28-.68,9.46,9.46,0,0,1-3.22-1.87,8.06,8.06,0,0,1-2-2.83,8.91,8.91,0,0,1-.71-3.57V9a8.91,8.91,0,0,1,.71-3.57,8.19,8.19,0,0,1,2.06-2.86A9.5,9.5,0,0,1,19.49.67,13,13,0,0,1,23.8,0" transform="translate(0 0)"/><path class="d" d="M40.33,9.07a9.33,9.33,0,0,1,.61-3.35,7.85,7.85,0,0,1,1.9-2.86,9.68,9.68,0,0,1,3.22-2A12.28,12.28,0,0,1,50.62.06a12.48,12.48,0,0,1,4.63.77,9.34,9.34,0,0,1,3.18,2A8.1,8.1,0,0,1,60.3,5.72a9.37,9.37,0,0,1,.61,3.35v70.7a9.61,9.61,0,0,1-.55,3.09,8.13,8.13,0,0,1-1.77,2.93,9.16,9.16,0,0,1-3.18,2.15,12.22,12.22,0,0,1-4.79.84,12,12,0,0,1-4.73-.84,9.38,9.38,0,0,1-3.18-2.12,8.2,8.2,0,0,1-1.8-2.9,9.27,9.27,0,0,1-.58-3.15Zm6.5,70.57a3.39,3.39,0,0,0,.9,2.35,3.82,3.82,0,0,0,3,1,3.71,3.71,0,0,0,2.93-1,3.46,3.46,0,0,0,.87-2.35V9.2a3.43,3.43,0,0,0-.9-2.31,3.75,3.75,0,0,0-3-1,3.63,3.63,0,0,0-3,1,3.58,3.58,0,0,0-.84,2.31Z" transform="translate(0 0)"/><path class="d" d="M87.48,86.52a1.41,1.41,0,0,1-.23.87,1.15,1.15,0,0,1-.93.29H83.88A2.94,2.94,0,0,1,82,87,2.5,2.5,0,0,1,81,85.3L72.81,30.55,73.58,85a2.51,2.51,0,0,1-.8,2,3,3,0,0,1-2,.71H68.25a1.15,1.15,0,0,1-.93-.29,1.39,1.39,0,0,1-.23-.87V2.38a1.55,1.55,0,0,1,.19-.9q.19-.26,1-.26h2.57a2.58,2.58,0,0,1,1.8.64,2.91,2.91,0,0,1,.9,1.67l8.3,54.68L81,3.86A2.24,2.24,0,0,1,81.82,2a2.91,2.91,0,0,1,2-.74h2.57q.71,0,.9.26a1.55,1.55,0,0,1,.19.9Z" transform="translate(0 0)"/><path class="d" d="M111.28,1.22q1.09,0,1.09,1.35v1a3.5,3.5,0,0,1-.8,2.51,3,3,0,0,1-2.28.84h-4V86.13q0,1.54-1.48,1.54h-3.47a1.36,1.36,0,0,1-1.54-1.54V6.95H94.62a3,3,0,0,1-2.28-.84,3.49,3.49,0,0,1-.8-2.51v-1q0-1.35,1.09-1.35Z" transform="translate(0 0)"/><path class="d" d="M123.56,81.92q.77,1.06,3,1.06a3.86,3.86,0,0,0,2.93-.93,3.31,3.31,0,0,0,.87-2.35V3.86a2.42,2.42,0,0,1,.84-1.9,2.82,2.82,0,0,1,1.93-.74h2.51a1.25,1.25,0,0,1,.93.26,1.51,1.51,0,0,1,.23,1V79.83a9.27,9.27,0,0,1-.58,3.15,8.2,8.2,0,0,1-1.8,2.9A9.08,9.08,0,0,1,131.28,88a12,12,0,0,1-4.63.81,12.52,12.52,0,0,1-4.5-.74,9.63,9.63,0,0,1-3.25-2,8,8,0,0,1-2-2.86,8.9,8.9,0,0,1-.64-3.35V2.44a1.5,1.5,0,0,1,.23-1,1.24,1.24,0,0,1,.93-.26H120A2.83,2.83,0,0,1,122,2a2.42,2.42,0,0,1,.84,1.9V79.7a3.72,3.72,0,0,0,.77,2.22" transform="translate(0 0)"/><path class="d" d="M144.21,87.68a1.24,1.24,0,0,1-.93-.26,1.51,1.51,0,0,1-.23-1v-84a1.5,1.5,0,0,1,.23-1,1.24,1.24,0,0,1,.93-.26h9.2a12.19,12.19,0,0,1,4.92.87,8.63,8.63,0,0,1,3.12,2.22,8.15,8.15,0,0,1,1.64,2.93,10.26,10.26,0,0,1,.48,3V34.16q0,1.42-.06,2.77a20.19,20.19,0,0,1-.29,2.6,8.42,8.42,0,0,1-.74,2.28,5.39,5.39,0,0,1-1.48,1.8,5.51,5.51,0,0,1,1.48,1.77,8.1,8.1,0,0,1,.74,2.12,16.39,16.39,0,0,1,.29,2.35q.06,1.22.06,2.38V78.67a10.06,10.06,0,0,1-.48,2.93,7.92,7.92,0,0,1-1.67,2.93,9.16,9.16,0,0,1-3.22,2.25,12.62,12.62,0,0,1-5.11.9Zm5.34-80.73v34h4.12a3.32,3.32,0,0,0,2.09-.58,3,3,0,0,0,1-1.45,6.74,6.74,0,0,0,.32-1.93q0-1.06,0-2V10.29a3.43,3.43,0,0,0-.9-2.32,3.75,3.75,0,0,0-3-1Zm0,39.43V82h3.73a3.75,3.75,0,0,0,3-1,3.43,3.43,0,0,0,.9-2.32V52.3q0-.9,0-2a6.75,6.75,0,0,0-.32-1.93,3,3,0,0,0-1-1.45,3.32,3.32,0,0,0-2.09-.58Z" transform="translate(0 0)"/><path class="d" d="M185.57,1.22q1.09,0,1.09,1.35v1a3.49,3.49,0,0,1-.8,2.51,3,3,0,0,1-2.28.84h-7.14V42h8.17q1.16,0,1.16,1.35v1q0,3.35-3.15,3.35h-6.17V82h7.14a3,3,0,0,1,2.28.84,3.49,3.49,0,0,1,.8,2.51v1q0,1.35-1.09,1.35h-14a2.63,2.63,0,0,1-1.38-.23q-.29-.22-.29-1v-84a1.51,1.51,0,0,1,.23-1,1.24,1.24,0,0,1,.93-.26Z" transform="translate(0 0)"/><path class="d" d="M212.59,86.45a1.51,1.51,0,0,1-.23,1,1.24,1.24,0,0,1-.93.26h-2.51a2.82,2.82,0,0,1-1.93-.74,2.41,2.41,0,0,1-.84-1.9V54.36a3.43,3.43,0,0,0-.9-2.32,3.75,3.75,0,0,0-3-1h-3.73V85a2.42,2.42,0,0,1-.84,1.9,2.91,2.91,0,0,1-2,.74h-2.51a1.24,1.24,0,0,1-.93-.26,1.51,1.51,0,0,1-.23-1v-84a1.51,1.51,0,0,1,.23-1,1.24,1.24,0,0,1,.93-.26h9.2a12.94,12.94,0,0,1,4.73.77,8.64,8.64,0,0,1,3.15,2A7.71,7.71,0,0,1,212,6.92a10.45,10.45,0,0,1,.55,3.31V40.46a13.23,13.23,0,0,1-.74,4.66,6.47,6.47,0,0,1-2.6,3.18,5.89,5.89,0,0,1,2.57,2.48,7.76,7.76,0,0,1,.77,3.57Zm-14-79.51v38.4h4.12a3.13,3.13,0,0,0,1.77-.45,3.22,3.22,0,0,0,1.06-1.16A4.77,4.77,0,0,0,206,42.1a13.51,13.51,0,0,0,.13-1.83v-30a3.43,3.43,0,0,0-.9-2.32,3.75,3.75,0,0,0-3-1Z" transform="translate(0 0)"/></g></svg>
