<svg xmlns="http://www.w3.org/2000/svg" xmlns:xlink="http://www.w3.org/1999/xlink" viewBox="0 0 299.39 261.45"><defs><style>.a{fill:none;}.b{clip-path:url(#a);}.c{fill:#fff;}</style><clipPath id="a" transform="translate(0 0)"><rect class="a" width="299.39" height="261.45"/></clipPath></defs><title>pc</title><g class="b"><path class="c" d="M286.41,0c2.55,1.44,5.18,2.71,7.3,4.83a26.39,26.39,0,0,1,5.21,8,6.3,6.3,0,0,1,.29,2.68q.06,54.88.11,109.76c0,7.09,0,14.19,0,21.28,0,3.2-.06,6.39-.31,9.59-.27,3.43-2.07,5.16-5.53,5.23-30.72.62-61.44.16-92.15.37-56.85.37-113.71.07-170.56.18a6.19,6.19,0,0,1-5.89-4.41,6.42,6.42,0,0,1,2.68-7.27c1.74-1,3.75-.72,5.64-.74,10.08-.12,20.16-.08,30.24-.16,54.18-.45,108.36-.11,162.54-.21q29-.06,58.08,0c2.86,0,2.88,0,2.88-2.83q0-36.88,0-73.76,0-23.84-.32-47.67c0-2.66-.33-5.32-.61-8-.32-3-1.65-4.14-4.72-4.31-10.23-.55-20.47-.33-30.71-.44-7.08-.08-14.16-.15-21.24-.16-6,0-12,.13-18,.13S199.37,12,193.41,12q-21.11,0-42.23,0-19.2,0-38.4,0c-6.38,0-12.76.14-19.15.14-5.85,0-11.7-.12-17.55-.12-4.41,0-8.83.12-13.24.14-12.47.06-24.95.09-37.42.16-2.66,0-5.33.15-8,.32-3.13.2-4.24,1.53-4.52,5-.59,7.18-.64,14.37-.64,21.56q0,68.88,0,137.76c0,5.53,0,11.07.59,16.6.36,3.74,1.36,4.66,5.13,4.8,15.3.57,30.61.27,45.91.39,57.33.46,114.67.17,172,.14q20.23,0,40.47-.26c2,0,3.94-.21,5.91-.29a3.68,3.68,0,0,0,3.34-2.35,10.79,10.79,0,0,0,1-4.49c.07-3.79.1-7.57.13-11.36a6.23,6.23,0,0,1,7-5.72c3.56.61,5.29,2.29,5.47,6.19.28,6,.42,12-.78,18a11.24,11.24,0,0,1-2,4.66c-3.77,5-8.39,8.18-15,8.37-8.85.24-17.7.16-26.55.33-21.86.42-43.73.14-65.59.21-1.59,0-2.14.46-2.12,2.09.08,6,.05,12.05,0,18.08a3.7,3.7,0,0,0,1.18,2.82c5.24,5.31,10.74,10.37,15.54,16.11,2.82,3.37,2.22,7.23-1.48,9.65l-.82.51h-4.48a17.12,17.12,0,0,1-1.69-1.18c-6.51-5.77-12.56-12-18.57-18.28a6.81,6.81,0,0,1-2.11-4.68c-.06-2.34-.32-4.68-.32-7,0-5.38.07-10.76.17-16.15,0-1.49-.45-2-2-2-15.3.06-30.6,0-45.91,0-2.15,0-2.16,0-2.17,2.12,0,6.56,0,13.12,0,19.67,0,3.57-.61,6.85-3.53,9.35-1.37,1.18-2.55,2.57-3.81,3.88-.54.56-1.07,1.12-1.64,1.72a2.71,2.71,0,0,0,1.87.31l36,0c5.38,0,10.77-.08,16.14.44a5.67,5.67,0,0,1,5,5.7,5.36,5.36,0,0,1-4.6,5.79l-1.25.25h-72c-.2-.25-.39-.5-.61-.74-3.87-4.11-3.84-6.48,0-10.7,4.73-5.22,9.84-10.07,14.8-15.05a3.46,3.46,0,0,0,1.11-2.68c0-5.71,0-11.41,0-17.12,0-3.19.42-3-3-3-30.18-.14-60.35.34-90.53-.32A16.78,16.78,0,0,1,11,210.3c-5.65-2.84-9.88-6.85-10.73-13.52C.08,194.87.46,192.94,0,191V12.8c1.17-1.89,2-4,3.33-5.76a22,22,0,0,1,9.79-7Z" transform="translate(0 0)"/><path class="c" d="M149.39,193.06a12.29,12.29,0,0,1-12.45-12.68c.07-6.61,5.88-12.46,12.37-12.46A12.86,12.86,0,0,1,162,180.57a12.27,12.27,0,0,1-12.6,12.49" transform="translate(0 0)"/><path class="c" d="M72.44,129.1q-19.6,0-39.21,0a19.24,19.24,0,0,1-3.66-.35,3,3,0,0,1-2.63-2.59c-.6-5.74-1-11.51,1.21-17a15.47,15.47,0,0,1,6.75-7.33c5.86-3.53,11.69-7.11,17.51-10.7.83-.51,2.22-.9.7-2.28-6.26-5.68-8.75-13-9.06-21.22-.19-5.15-.46-10.29-.54-15.44-.25-15.7,11.25-27.35,26.91-27.49,5.81-.05,11.55,0,16.81,3,9,5,14.06,12.57,14.13,22.93.06,7.82,0,15.68-1.22,23.45a25.45,25.45,0,0,1-7.94,14.51c-1.35,1.3-1.1,1.75.31,2.59,5.87,3.52,11.65,7.18,17.53,10.67,5.52,3.28,8.2,8.12,8.38,14.44.06,2.15,0,4.31,0,6.46,0,5.26-1.21,6.46-6.56,6.47H72.44Zm.2-7.86H85.78c7.53,0,15.06,0,22.59,0,1,0,2.35.28,2.42-1.37.18-4.67-.07-9-5.31-12-7.8-4.45-15.38-9.3-23-14-3.57-2.21-3.53-5.37,0-7.57.46-.28.93-.54,1.38-.84,4.8-3.15,8.11-7.51,8.84-13.19a132.45,132.45,0,0,0,.94-23c-.3-6.59-3.82-11.56-9.69-14.7-5.59-3-11.65-2.77-17.57-1.8-8.2,1.35-13.83,7.45-14.89,15.72-.78,6,.21,12.1.33,18.16a26.79,26.79,0,0,0,.74,7.09A20.82,20.82,0,0,0,62.25,86.1c4,2.41,4,5.4,0,7.91l-.79.48c-7.07,4.34-14.06,8.83-21.25,13-4.31,2.48-6.24,5.82-5.81,10.76.26,3,.1,3,3.21,3h35" transform="translate(0 0)"/><path class="c" d="M205.66,80.71h-48a56.79,56.79,0,0,1-8.26-.43c-4.12-.61-6.46-1.86-6.22-3.67s2.68-3,7-3.43c2.52-.23,5.16-.33,7.74-.33q47.69,0,95.38,0c2.59,0,5.24.07,7.74.32,4.55.44,6.93,1.76,6.93,3.67s-2.35,3.07-6.66,3.5c-2.5.25-5.14.33-7.72.34q-24,0-48,0" transform="translate(0 0)"/><path class="c" d="M205.95,104.6q23.45,0,46.91,0c2.59,0,5.22.06,7.75.26,4.84.39,7.61,1.72,7.48,3.73s-3,3.45-7.89,3.57c-8.5.22-17.05.16-25.58.17q-22.83,0-45.67,0c-12.44,0-24.88,0-37.32-.13-5,0-8-1.37-8.38-3.36s2.14-3.4,6.94-3.88c2.32-.23,4.78-.32,7.18-.32q24.29,0,48.58,0Z" transform="translate(0 0)"/><path class="c" d="M206.54,41.29H255c1.67,0,3.37,0,5,.07,4.55.3,7.44,1.38,7.87,3.32s-1.65,3.3-6.12,3.88a52.37,52.37,0,0,1-6.57.35q-49.33,0-98.67,0a59.89,59.89,0,0,1-6.06-.26c-4.69-.49-7.4-1.75-7.29-3.8s3.67-3.32,8.71-3.54c1.84-.08,3.71-.05,5.57-.05h49.06" transform="translate(0 0)"/></g></svg>
